<svg version="1.1" xmlns="http://www.w3.org/2000/svg" xmlns:xlink="http://www.w3.org/1999/xlink" width="61.15615" height="30.01558" viewBox="0,0,61.15615,30.01558"><g transform="translate(-212.29692,-163.12497)"><g data-paper-data="{&quot;isPaintingLayer&quot;:true}" fill="#ffffff" fill-rule="nonzero" stroke="none" stroke-width="0.5" stroke-linecap="butt" stroke-linejoin="miter" stroke-miterlimit="10" stroke-dasharray="" stroke-dashoffset="0" style="mix-blend-mode: normal"><path d="M221.6875,193.12652l-0.29857,-0.06735h-0.30776l-0.37488,-0.08456l-0.74733,-0.09633l-0.27141,-0.09978l-0.04838,0.02183l-0.39725,-0.12802l-0.04744,-0.00951l-0.0448,-0.02021l-0.04084,-0.01316l-0.54632,-0.12324l-0.04202,-0.06636l-0.09473,-0.03052l-0.375,-0.22558l-0.33018,-0.32772l-0.3632,-0.29792l-0.00711,-0.00962l-0.18053,-0.09774l-0.25,-0.22558l-0.06535,-0.09827l-0.0132,-0.01021l-0.00065,-0.01063l-0.04891,-0.07356l-0.18425,-0.15114l-0.11268,-0.15252l-0.01755,-0.01584l-0.14492,-0.11887l-0.49104,-0.37977l-0.00213,-0.03452l-0.09437,-0.12773l-0.07496,-0.06764l-0.12811,-0.19266l-0.18425,-0.15114l-0.11268,-0.15252l-0.07496,-0.06764l-0.12811,-0.19266l-0.18425,-0.15114l-0.25,-0.33836l-0.11231,-0.28375l-0.17927,-0.2542l-0.01913,-0.05178l-0.06429,-0.08701l-0.16338,-0.41277l-0.20795,-0.39611l-0.09448,-0.42623l-0.1446,-0.39141l-0.04554,-0.08219l-0.05973,-0.2425l-0.12956,-0.2192l-0.03676,-0.13269l-0.2741,-0.46372l-0.31946,-0.48042l0.01201,-0.03974l-0.00669,-0.01131l-0.05844,-0.21092l-0.05432,-0.09803l-0.02438,-0.01257l-0.01742,-0.06285l-0.03115,-0.05622l-0.12461,-0.50597l-0.13932,-0.50283v-0.06285l-0.01558,-0.06324l0.01558,-0.02108v-2.40972l-0.00303,-0.00362l0.00303,-0.01695v-0.24222l0.12202,-0.44041l0.08011,-0.44817l0.10575,-0.22264l0.00461,-0.01665l0.00436,-0.00225l0.05814,-0.1224v-0.29211l-0.01558,-0.02108l0.01558,-0.06324v-0.06285l0.13932,-0.50283l0.12461,-0.50597l0.03115,-0.05622l0.01742,-0.06285l0.02438,-0.01257l0.02733,-0.04931l0.18434,-0.83166l0.0261,-0.04971v-0.055l0.11057,-0.39908l0.11333,-0.51131l0.14295,-0.2723l0.07244,-0.29412l0.25,-0.45115l0.06379,-0.06716l0.02854,-0.08462l0.375,-0.56394l0.04366,-0.03939l0.00376,-0.06103l0.40016,-0.30948l0.17742,-0.26681l0.21762,-0.19636l0.15834,-0.23813l0.28238,-0.25479l0.21666,-0.32581l0.0431,-0.03889l0.0205,-0.0518l0.25,-0.33836l0.05256,-0.04311l0.02757,-0.05907l0.375,-0.45115l0.03112,-0.02282l0.01671,-0.03289l0.5,-0.56394l0.30635,-0.21061l0.25907,-0.25714l0.16903,-0.10167l0.44996,-0.406l0.24469,-0.13248l0.19808,-0.18534l1,-0.56394l0.1151,-0.03368l0.09187,-0.07105l0.5,-0.22558l0.26876,-0.05389l0.24293,-0.1169l0.40685,-0.09177l0.28391,-0.08539l0.40069,-0.02781l0.38988,-0.08795h1.33376l0.00401,-0.00273l0.01878,0.00273h0.26845l0.4881,0.1101l0.4967,0.07228l0.24675,0.09542l0.01845,0.00416l0.00249,0.00393l0.10445,0.04039l0.00331,-0.00199l0.07009,0.01406h0.06966l0.55728,0.12571l0.56075,0.11244l0.06231,0.02811l0.06966,0.01572l0.01393,0.022l1.01109,0.45616l0.96588,0.3486l0.0629,-0.1419l0.06211,-0.0776l0.02301,-0.09344l0.2035,-0.36723l0.21138,-0.47682l0.15311,-0.19129l0.08795,-0.22221l0.5,-0.67673l0.08186,-0.06715l0.04609,-0.09074l0.33455,-0.37733l0.13156,-0.2374l0.26154,-0.27532l0.20676,-0.31094l0.12437,-0.11222l0.2684,-0.3229l0.37348,-0.27381l0.34028,-0.30704l1.25,-0.67673l0.09378,-0.02575l0.07443,-0.05756l0.36079,-0.16277l0.2455,-0.14767l0.45746,-0.14742l0.439,-0.18763l0.56667,-0.10226l0.94229,-0.21256h0.30776l0.29857,-0.06735h1.25l0.17457,0.03938l0.17899,-0.01671l0.875,0.11279l0.02767,0.01017l0.02978,-0.00215l0.65811,0.09897l1.28223,0.10518l0.27443,0.08638l0.2898,0.02011l1.08907,0.32755l2.22251,0.60161l1.12419,0.09222l0.18455,0.05809h0.19545l0.5,0.11279l0.01254,0.00604l0.04404,-0.01084l0.53244,0.28825l0.54787,0.26365l0.01236,0.03965l0.01218,0.0066l0.12043,0.10866l1.05894,0.52117l0.16307,0.13553l0.20154,0.08335l1.25,0.9023l0.08532,0.10104l0.12071,0.06535l1,0.9023l0.10202,0.15343l0.15205,0.11486l1,1.24066l0.06155,0.13751l0.11135,0.10909l0.7328,1.21221l0.36387,0.56284l0.10331,-0.0799l0.14492,-0.11887l0.06696,-0.06042l0.17053,-0.20516l0.00156,-0.0253l0.05452,-0.04216l0.0418,-0.05029l0.44582,-0.32684l0.43614,-0.33732l0.06231,-0.02811l0.05573,-0.04086l0.02786,0.00314l0.21489,-0.09694l0.6205,-0.37325l0.31447,-0.10134l0.28172,-0.16176l0.375,-0.11279l0.40069,-0.02781l0.38988,-0.08795h1.375l0.24157,0.05449l0.24872,-0.01068l0.625,0.11279l0.09332,0.03988l0.1032,0.0031l0.61857,0.15946l0.00976,-0.00328l0.03261,0.0142l0.21407,0.05518l0.44794,0.23318l0.46572,0.20286l0.10643,0.08003l0.37178,0.11981l0.54632,0.12324l0.04202,0.06636l0.02309,0.00744h0.00001l0.00007,0.00003l0.07155,0.02305l0.01469,0.00884l0.07989,0.01802l0.49199,0.23675l0.50213,0.21873l0.08465,0.06365l0.05811,0.02796l0.0064,0.02055l0.58163,0.43734l1.23048,0.88821l0.08532,0.10104l0.12071,0.06535l0.375,0.33836l0.20676,0.31094l0.26154,0.27532l0.18039,0.32554l0.66366,0.89824l0.03473,0.08774l0.07054,0.06803l0.625,1.01509l0.01443,0.04853l0.03624,0.03815l0.30539,0.55112l0.66366,0.89824l0.13021,0.32898l0.19347,0.30259l0.25,0.78951l0.00142,0.03856l0.02012,0.03404l0.15977,0.57666l0.1836,0.2761l0.00414,0.01226l0.03963,0.02044l0.1506,0.54353l0.18079,0.53599l-0.02233,0.03592l0.00345,0.01243v0.34482l0.04741,0.19249l0.09317,0.1261l-0.03106,0.1261l0.03106,0.1261l-0.09317,0.1261l-0.09709,0.39422l0.00114,0.02154l-0.125,0.56394l-0.14295,0.2723l-0.07244,0.29412l-0.75,1.35345l-0.26154,0.27532l-0.20676,0.31094l-4,3.60921l-0.1543,0.08354l-0.11347,0.12601l-0.5,0.33836l-0.06547,0.02488l-0.04778,0.04742l-0.375,0.22558l-0.14877,0.04794l-0.11994,0.09277l-0.5,0.22558l-0.32597,0.06536l-0.30178,0.12898l-1.09738,0.19804l-0.60234,0.18116l-0.40069,0.02781l-0.38988,0.08795h-3.2616l-1.26206,0.10352l-0.11421,-0.01603l-0.11213,0.02529h-3.79309l-0.54591,0.08209l-0.20829,-0.01503l-0.20271,0.04573h-5.00222l-0.3579,0.02484l-0.38988,0.08795h-4.56724l-0.20143,0.04544h-0.30776l-0.29857,0.06735h-1.57233l-0.69912,0.09011l-0.17899,-0.01671l-0.17457,0.03938h-1.62531l-1.04446,0.09425l-0.66923,0.10064l-0.20829,-0.01503l-0.20271,0.04573h-0.62722l-0.3579,0.02484l-0.38988,0.08795h-0.29309l-0.54591,0.08209l-0.20829,-0.01503l-0.02237,0.00504l-0.06231,0.02811l-0.32597,0.06536l-0.30178,0.12898l-0.625,0.11279l-0.24872,-0.01068l-0.24157,0.05449h-0.71931l-0.36512,0.10982l-0.19772,0.01372l-0.18186,0.07134l-1.5,0.22558l-0.11359,-0.0082l-0.17241,0.03889h-0.875l-0.5,0.11279h-0.06966l-0.07009,0.01406l-0.02336,-0.01406z"/></g></g></svg>